<?xml version="1.0" standalone="no"?>
<!DOCTYPE svg PUBLIC "-//W3C//DTD SVG 20010904//EN"
 "http://www.w3.org/TR/2001/REC-SVG-20010904/DTD/svg10.dtd">
<svg version="1.0" xmlns="http://www.w3.org/2000/svg"
 width="16.000000pt" height="16.000000pt" viewBox="0 0 16.000000 16.000000"
 preserveAspectRatio="xMidYMid meet">
<metadata>
Created by potrace 1.11, written by Peter Selinger 2001-2013
</metadata>
<g transform="translate(0.000000,16.000000) scale(0.005161,-0.005161)"
fill="#000000" stroke="none">
<path d="M1295 3084 c-573 -101 -1043 -505 -1220 -1047 -54 -167 -70 -277 -70
-482 0 -205 16 -315 71 -482 27 -84 111 -274 129 -291 5 -5 273 147 280 158 2
4 -11 38 -30 76 -169 334 -165 755 10 1098 63 125 124 208 229 311 213 209
469 327 769 351 l87 7 0 158 0 159 -87 -1 c-49 0 -124 -7 -168 -15z"/>
<path d="M2750 2255 c-69 -41 -129 -76 -133 -77 -4 -2 10 -41 32 -88 85 -182
121 -341 121 -537 0 -632 -472 -1150 -1107 -1214 l-113 -12 0 -163 0 -162 78
5 c310 20 580 115 832 291 103 72 297 274 369 382 122 183 201 373 243 583 18
91 22 146 22 292 0 201 -19 326 -74 490 -37 111 -120 285 -134 284 -6 0 -67
-34 -136 -74z"/>
<path d="M793 2173 c12 -232 57 -810 72 -926 26 -202 86 -329 210 -446 73 -68
160 -119 255 -150 152 -48 278 -50 425 -4 122 38 191 79 281 168 69 67 89 95
127 175 25 52 52 124 61 160 23 94 86 877 86 1072 l0 68 -762 0 -761 0 6 -117z
m256 37 l31 -50 -103 6 c-126 8 -151 18 -155 62 l-3 32 100 0 99 0 31 -50z
m510 -17 c22 -37 39 -69 37 -70 -4 -4 -228 15 -231 19 -16 24 -65 110 -65 113
0 3 49 5 109 5 l110 0 40 -67z m463 50 c17 -21 98 -152 98 -159 0 -3 -24 -3
-52 0 -29 3 -83 8 -119 11 l-67 6 -45 74 c-25 41 -42 76 -39 79 3 3 51 6 107
6 85 0 104 -3 117 -17z m-713 -43 c17 -28 31 -51 31 -53 0 -3 -222 13 -235 17
-5 2 -20 22 -33 45 l-23 41 115 0 114 0 31 -50z m501 -16 c23 -36 39 -68 36
-71 -3 -3 -54 -2 -114 2 -85 5 -111 11 -119 23 -5 10 -22 38 -37 65 l-28 47
110 0 110 0 42 -66z m470 19 c0 -27 -3 -65 -6 -85 l-7 -38 -61 0 -61 1 -47 78
c-27 43 -48 81 -48 85 0 3 52 6 115 6 l115 0 0 -47z m-1396 -124 c26 -44 46
-82 44 -84 -1 -2 -24 -1 -50 2 -44 5 -48 8 -48 32 0 14 -3 50 -6 79 -4 29 -3
52 2 52 5 0 31 -36 58 -81z m138 65 l67 -6 46 -75 c25 -41 44 -77 42 -80 -3
-2 -53 -1 -112 3 l-107 7 -22 36 c-13 20 -35 58 -51 84 l-27 48 48 -5 c27 -3
79 -8 116 -12z m334 -25 c13 -11 106 -160 102 -164 -2 -1 -43 1 -93 6 -49 4
-104 8 -121 8 -29 1 -36 9 -83 87 l-51 86 117 -7 c65 -4 123 -11 129 -16z
m224 -18 c30 -6 41 -17 83 -85 l49 -79 -68 6 c-38 4 -88 7 -112 7 -41 0 -43 1
-88 71 -66 104 -68 98 23 92 43 -3 94 -8 113 -12z m296 -24 c16 -18 94 -145
94 -155 0 -7 -201 4 -226 13 -11 3 -104 149 -104 162 0 11 225 -8 236 -20z
m209 -13 c48 -5 52 -7 77 -52 15 -26 37 -62 49 -80 l22 -33 -89 6 c-147 10
-146 9 -176 62 -15 27 -37 63 -49 81 l-22 34 69 -6 c38 -4 92 -9 119 -12z
m185 -16 c0 -5 0 -39 0 -78 0 -38 -4 -70 -9 -70 -7 0 -101 144 -101 156 0 3
25 4 55 2 30 -2 55 -6 55 -10z m-1344 -74 c11 -3 39 -35 62 -72 l41 -67 -86
-3 c-47 -2 -88 -1 -91 2 -2 3 -7 37 -10 76 l-5 70 34 0 c19 0 43 -3 55 -6z
m289 -39 c11 -14 30 -43 43 -65 l23 -40 -115 0 -114 0 -41 69 c-22 38 -41 71
-41 73 0 2 51 0 113 -5 101 -7 114 -10 132 -32z m235 -1 c18 -3 34 -20 53 -54
l28 -50 -114 0 -115 0 -36 61 -36 61 97 -7 c54 -3 109 -8 123 -11z m286 -32
c7 -9 20 -29 29 -44 l16 -28 -113 0 -113 0 -28 45 c-15 25 -27 49 -27 53 0 4
50 4 112 -1 87 -6 114 -12 124 -25z m261 -30 c13 -15 23 -30 23 -34 0 -5 -49
-8 -109 -8 l-109 0 -21 36 c-12 19 -21 37 -21 40 0 3 48 2 108 -1 100 -6 109
-9 129 -33z m208 9 c42 -5 51 -10 53 -29 3 -22 2 -22 -106 -22 -109 0 -109 0
-123 28 -7 15 -15 30 -17 33 -3 7 113 1 193 -10z m-665 -659 l0 -578 -67 8
c-148 17 -276 80 -384 188 -62 61 -84 92 -122 170 -25 52 -53 129 -61 170 -14
65 -56 510 -56 591 l0 29 345 0 345 0 0 -578z m490 443 c0 -3 -23 -64 -50
-137 -28 -72 -48 -133 -46 -135 3 -3 48 18 100 47 l96 51 0 -176 0 -177 -32
20 c-92 54 -168 92 -168 83 0 -5 22 -67 50 -138 27 -70 50 -131 50 -135 0 -5
-72 -8 -159 -8 l-159 0 54 141 c30 77 54 142 54 145 0 3 -47 -20 -105 -51
l-105 -57 0 176 c0 97 2 176 5 176 3 0 51 -25 106 -54 115 -63 111 -75 39 112
l-48 122 159 0 c87 0 159 -2 159 -5z"/>
<path d="M1208 1763 c-8 -10 -22 -30 -31 -45 -14 -23 -25 -28 -55 -28 -21 0
-43 -5 -50 -12 -15 -15 -15 -60 0 -110 13 -45 1 -62 -39 -52 -25 7 -63 -26
-63 -53 0 -10 11 -36 25 -58 33 -53 31 -68 -10 -99 -50 -38 -47 -70 11 -126
65 -64 69 -75 48 -121 -25 -56 -11 -81 63 -109 71 -26 101 -53 109 -97 7 -37
50 -77 96 -88 l27 -7 -16 49 c-8 26 -17 56 -20 66 -4 13 15 37 66 86 39 37 71
73 71 80 0 24 -20 49 -45 55 -14 4 -25 11 -25 17 0 5 20 31 44 57 79 84 81
132 6 152 -21 6 -41 14 -44 19 -3 4 8 21 24 36 64 61 58 145 -10 145 -36 0
-39 20 -10 57 38 49 23 92 -36 102 -34 5 -39 10 -45 41 -12 55 -61 78 -91 43z
m66 -19 c9 -8 16 -26 16 -38 0 -29 16 -43 55 -48 24 -2 31 -8 33 -31 2 -16 -6
-42 -18 -62 -28 -46 -21 -65 24 -65 30 0 37 -4 42 -25 8 -33 -10 -75 -47 -111
-34 -32 -26 -50 27 -60 71 -13 69 -58 -6 -136 -28 -28 -50 -57 -50 -64 0 -8
16 -20 35 -28 45 -19 46 -49 3 -84 -18 -15 -47 -42 -64 -59 -31 -31 -33 -32
-39 -13 -4 13 0 31 9 45 10 15 12 25 6 25 -6 0 2 12 17 26 l28 25 -32 -21
c-39 -28 -50 -21 -58 34 -8 52 10 95 49 116 14 7 24 15 22 17 -8 8 -66 -27
-76 -46 -13 -25 -13 -107 0 -132 6 -10 18 -19 27 -19 13 0 13 -3 3 -15 -11
-13 -11 -42 1 -85 3 -9 -4 -16 -18 -18 -20 -3 -23 1 -23 30 0 52 -32 95 -80
108 -23 6 -47 9 -53 7 -7 -2 5 -7 25 -11 37 -7 88 -54 88 -81 0 -10 -9 -9 -37
6 -21 10 -59 27 -85 38 -52 21 -62 48 -34 86 21 29 3 73 -53 127 -56 53 -59
83 -10 110 37 21 38 52 4 116 -22 40 -23 49 -11 67 8 12 26 20 42 21 59 3 57
1 49 52 -4 26 -8 63 -8 82 -2 35 -2 35 46 38 39 3 50 8 64 30 40 65 59 75 87
46z m35 -925 c14 -42 15 -42 -11 -28 -42 21 -60 42 -46 51 26 16 46 8 57 -23z"/>
<path d="M1216 1659 c-3 -17 -5 -52 -5 -78 1 -38 3 -33 10 28 9 77 6 105 -5
50z"/>
<path d="M1235 1618 c-6 -40 -4 -54 7 -62 13 -10 13 -13 2 -24 -15 -14 -20
-167 -6 -175 4 -3 7 33 7 80 0 72 3 87 19 99 11 8 14 14 7 14 -7 0 -9 5 -6 10
4 6 1 9 -7 8 -10 -2 -12 10 -10 50 4 67 -4 67 -13 0z"/>
<path d="M1140 1601 c0 -8 12 -33 27 -54 23 -33 28 -53 31 -113 5 -87 -5 -94
-58 -39 -18 19 -37 32 -41 29 -4 -2 -15 6 -23 18 -9 12 -18 19 -21 16 -3 -3
18 -34 47 -68 71 -83 88 -110 88 -140 0 -43 -13 -54 -49 -42 -56 20 -66 3 -18
-28 47 -29 77 -80 77 -128 0 -26 -3 -29 -27 -26 l-28 4 29 -11 c36 -14 48 1
40 51 -10 54 -26 82 -63 107 -19 13 -28 23 -20 23 8 0 24 -7 35 -15 29 -20 34
-11 34 57 0 57 -2 61 -50 112 -63 66 -66 86 -4 26 44 -44 46 -45 61 -25 20 26
10 149 -15 183 -9 14 -25 36 -34 51 -10 15 -18 20 -18 12z"/>
<path d="M1277 1357 l-47 -44 0 -71 c0 -51 4 -72 13 -72 13 0 137 69 124 70
-4 0 -34 -14 -67 -30 l-60 -30 0 51 c0 59 10 81 58 132 49 50 37 47 -21 -6z"/>
<path d="M1786 1514 c30 -81 53 -149 50 -151 -2 -2 -48 20 -102 51 l-99 54 -3
-145 c-1 -80 0 -148 2 -151 3 -2 50 20 106 51 55 30 100 52 100 48 0 -4 -22
-68 -50 -142 -27 -74 -50 -140 -50 -146 0 -10 34 -13 135 -13 74 0 135 4 135
9 0 5 -12 40 -26 77 -14 38 -39 104 -55 147 l-29 79 87 -48 c49 -26 98 -54
111 -62 l22 -14 0 157 0 157 -87 -48 c-49 -26 -98 -54 -111 -62 -22 -14 -21
-11 12 79 18 52 43 119 55 149 11 30 21 58 21 63 0 4 -63 7 -139 7 l-139 0 54
-146z m153 -21 c-32 -86 -57 -158 -55 -160 2 -2 53 23 112 56 l109 61 3 -65
c2 -35 2 -95 0 -133 l-3 -69 -108 60 c-59 33 -109 58 -112 56 -2 -2 21 -69 51
-149 29 -80 54 -151 54 -157 0 -10 -31 -13 -120 -13 -66 0 -120 1 -120 3 0 1
26 73 59 160 32 86 55 157 51 157 -4 0 -53 -25 -109 -56 -56 -31 -104 -54
-107 -51 -3 2 -3 61 -2 130 l3 125 105 -59 c58 -32 108 -59 112 -59 4 0 -4 30
-19 68 -14 37 -40 109 -59 160 l-34 92 124 0 124 0 -59 -157z"/>
</g>
</svg>
